<svg xmlns="http://www.w3.org/2000/svg" fill="none" viewBox="0 0 100 100"><g clip-path="url(#a)"><path fill="#0080FF" d="M14 71.46V0h35.73v100l-1.39-.13-1.39-.5-2.65-1.39-4.92-3.54L30.4 87 14 71.46Z"/><path fill="#043883" d="M85.34 71.46V0H49.6v100l1.38-.13 1.4-.5 2.65-1.39 4.92-3.54L68.92 87l16.42-15.53Z"/><path fill="#FFC200" d="M62.23 12.37c.13.5 1.27 1.01 1.27 1.01l-2.15 1.77-2.78 4.55c-.53.19-.96.45-1.39.25l-.76-.25.76.63 1.64.12c-.3.3-.83.91-.83 1.01 0 .1-1.14 2.15-1.01 2.53.12.38-1.44 2.53-1.44 2.53l1.64-.51-.5.88-.26 2.9c-.18.75-.36 1.01-.88 1.14H53.9c.53.53.68.78.5 1.14l-4.29 1.39a69.45 69.45 0 0 1-13.5 4.8l-3.3 1.77-1.07 1-1.32.76-3.79-.25-1.2-.76-.7-1.26-.25-2.27.64-1.27 1.89-1.26 2.53-1 .63-.26 2.65-.25 4.54.25c2.3.2 1.48.05 3.41.25 0 0 2.46.13 3.29-.25a3.4 3.4 0 0 0 1.26-1.01c.08-.3.12-.66.12-.76 0-.1.13-.76-.37-1.51-.5-.76-2.53-2.53-2.53-2.53l-.88-.38h-2.9l-.77.63h-1l-.89-.25h-.63l.13 1.26 1 .64 1.4.88h2.14l1.52-.63s.5-.25 1.39-.25c.88 0 1.38.88 1.38.88.18.61.2.92 0 1.39 0 0-.5.63-1.13.88-.63.25-3.41.13-3.41.13l-1.01-.13-2.02-.25-3.03-.25h-3.16l-3.15.38-3.29 1.64s-1.15 1.9-1.4 2.27c-.25.38-.11 2.9-.11 2.9l.25 1.27s.38.63.63 1.13c.25.5.76 1.01 1.14 1.4.38.37.7.5.7.5l2.33.88c1 0 1.75-.13 2.14.13v.75l-4.67 5.94-.63 1.9-1.14 1-3.9 1.64-4.05 1.14-.38 11.24 2.78 3.28h5.93l.89-.88v-1.27l-.76-1.26-3.03-.25-1.01-1.01v-5.3l1.9-1.4 2.4-.75 1.63.25h2.02l1.01-.25 2.53-.63 2.02-1.01 1.64-.38 1.26-1.14 1.27-1.39v1.4l.75.75v4.8l-.75 1-.26 1.27s3.03 3.28 4.55 4.04c1.51.76 2.65 2.65 2.65 2.65l4.92.26 1.4-.38.25-.76-.76-1.39-.89-1.14H48.6l-1.01.26-1.77-1.14-1.14-1.26-.88-.89-.63-1.13v-1.64l4.8-9.1.12-1.64h1.52c2.64.32 4.02.65 6.3 1.52h4.17l.13 1.14-.5 1-.63 7.33a4.3 4.3 0 0 1-1.65 2.52l1.65 2.53.37 2.15 1.01 1.13 2.15.13.63.5.25.76 2.15-.13 1.52.13h2.4l.5-.13.25-.37v-1.14l-1.51-1.9h-.89l-1.38.13-2.02-3.4v-1.52l2.2-5.94 1.58-5.3 2.02-2.15v1.01l1.27-1.64.12 1.01 2.78-3.66v2.65s.63-1.9 1.01-2.4 1.14-1.13 1.14-1.13l1.13-1.9.38-1.51v-2.4c.49.27.76.64 1.26 1.77l.13-.26-.76-2.14-.12-2.15-.5-2.15-1.27-2.27 2.27 2.02-1-2.65-3.17-3.16-.25-1 .63-1.14.76.38 4.17.5.38.25.88.5.25-.5.38-.25v-1.9l-.5-.37v-.63l1.64-1.9.12-2.65-2.02-1.26-1.38-.25-1.14-.5-1.26-1.27-1.14-.76c-.75-.03-1.2-.18-2.15-1l-.5-1.4.12-1.13h1.01l1.14.38h1.26l-2.4-1.65h-1.76l-.89 1.14-.5-.5-.25-.51.25-.38.76-.38-1.14-.25-1.01.13-.38.37-.25.64-1.64-.5-1.9-.26s-.25.25-.38.25c-.12 0-.5 1.01-1.64 1.14-1.13.12-1.9 0-1.9 0s-.24-.38-.12.12Z"/><path fill="#fff" d="M51.63 5.18 24.6 64.14h-4.93v5.81h21.34v-5.8h-5.68l10.48-27.03h3.15v32.83h13.64v-5.8h-5.68V37.11H64v3.41h3.66V28.79H64v3.28h-7.07V10.61H71.7l3.16 3.53h3.4V5.18H51.64Z"/><path fill="#0080FF" d="m49.1 29.42-1.9 4.54h1.9v-4.54Z"/><path fill="#FFC200" d="m43.17 61.62 4.8-9.1-9.1 4.55v4.8l-.75 1-.26 1.27s3.03 3.28 4.55 4.04c1.51.76 2.65 2.65 2.65 2.65l4.92.26 1.4-.38.25-.76-.76-1.39-.89-1.14H48.6l-1.01.26-1.77-1.14-1.14-1.26-.88-.89-.63-1.13v-1.64ZM62.23 12.37c.13.5 1.27 1.01 1.27 1.01l-2.15 1.77-2.78 4.55c-.53.19-.96.45-1.39.25l-.76-.25.76.63 1.64.12c-.3.3-.83.91-.83 1.01 0 .1-1.14 2.15-1.01 2.53.12.38-1.44 2.53-1.44 2.53l1.64-.51-.25.44 17.8 1.45.63-1.13.76.38 4.17.5.38.25.88.5.25-.5.38-.25v-1.9l-.5-.37v-.63l1.64-1.9.12-2.65-2.02-1.26-1.38-.25-1.14-.5-1.26-1.27-1.14-.76c-.75-.03-1.2-.18-2.15-1l-.5-1.4.12-1.13h1.01l1.14.38h1.26l-2.4-1.65h-1.76l-.89 1.14-.5-.5-.25-.51.25-.38.76-.38-1.14-.25-1.01.13-.38.37-.25.64-1.64-.5-1.9-.26s-.25.25-.38.25c-.12 0-.5 1.01-1.64 1.14-1.13.12-1.9 0-1.9 0s-.24-.38-.12.12ZM20.44 66.92v-5.3l1.9-1.4 2.4-.75 1.63.25 6.7-16.54.25-3.15-1.08 1-1.32.76-3.79-.25-1.2-.76-.7-1.26-.25-2.27.64-1.27 1.89-1.26 2.53-1 .63-.26 2.65-.25 4.54.25c2.3.2 1.48.05 3.41.25 0 0 2.46.13 3.29-.25a3.4 3.4 0 0 0 1.26-1.01c.08-.3.12-.66.12-.76 0-.1.13-.76-.37-1.51-.5-.76-2.53-2.53-2.53-2.53l-.88-.38h-2.9l-.77.63h-1l-.89-.25h-.63l.13 1.26 1 .64 1.4.88h2.14l1.52-.63s.5-.25 1.39-.25c.88 0 1.38.88 1.38.88.18.61.2.92 0 1.39 0 0-.5.63-1.13.88-.63.25-3.41.13-3.41.13l-1.01-.13-2.02-.25-3.03-.25h-3.16l-3.15.38-3.29 1.64s-1.15 1.9-1.4 2.27c-.25.38-.11 2.9-.11 2.9l.25 1.27s.38.63.63 1.13c.25.5.76 1.01 1.14 1.4.38.37.7.5.7.5l2.33.88c1 0 1.75-.13 2.14.13v.75l-4.67 5.94-.63 1.9-1.14 1-3.9 1.64-4.05 1.14-.38 11.24 2.78 3.28h5.93l.89-.88v-1.27l-.76-1.26-3.03-.25-1.01-1.01Z"/></g><defs><clipPath id="a"><path fill="#fff" d="M14 0h71.46v100H14z"/></clipPath></defs></svg>
